<svg width="90" height="90" viewBox="0 0 90 90" fill="none" xmlns="http://www.w3.org/2000/svg">
<path d="M31.9354 39.9195C31.9354 36.318 29.0046 33.3872 25.4032 33.3872C21.8017 33.3872 18.8709 36.318 18.8709 39.9195C18.8709 43.5209 21.8017 46.4517 25.4032 46.4517C29.0046 46.4517 31.9354 43.5209 31.9354 39.9195ZM21.7741 39.9195C21.7741 37.9191 23.4014 36.2904 25.4032 36.2904C27.4049 36.2904 29.0322 37.9191 29.0322 39.9195C29.0322 41.9198 27.4049 43.5485 25.4032 43.5485C23.4014 43.5485 21.7741 41.9198 21.7741 39.9195Z" fill="#BCBCBC"/>
<path d="M53.7097 44.9999C53.7097 42.5989 51.7558 40.645 49.3549 40.645C46.9539 40.645 45 42.5989 45 44.9999C45 47.4008 46.9539 49.3547 49.3549 49.3547C51.7558 49.3547 53.7097 47.4008 53.7097 44.9999ZM47.9033 44.9999C47.9033 44.2 48.555 43.5482 49.3549 43.5482C50.1547 43.5482 50.8065 44.2 50.8065 44.9999C50.8065 45.7997 50.1547 46.4515 49.3549 46.4515C48.555 46.4515 47.9033 45.7997 47.9033 44.9999Z" fill="#BCBCBC"/>
<path d="M30.4839 68.2257C30.4839 65.8247 28.53 63.8708 26.129 63.8708C23.7281 63.8708 21.7742 65.8247 21.7742 68.2257C21.7742 70.6267 23.7281 72.5805 26.129 72.5805C28.53 72.5805 30.4839 70.6267 30.4839 68.2257ZM24.6774 68.2257C24.6774 67.4258 25.3278 66.7741 26.129 66.7741C26.9303 66.7741 27.5807 67.4258 27.5807 68.2257C27.5807 69.0255 26.9303 69.6773 26.129 69.6773C25.3278 69.6773 24.6774 69.0255 24.6774 68.2257Z" fill="#BCBCBC"/>
<path d="M14.5161 58.7904C14.5161 56.3894 12.5622 54.4355 10.1613 54.4355C7.76031 54.4355 5.80643 56.3894 5.80643 58.7904C5.80643 61.1914 7.76031 63.1452 10.1613 63.1452C12.5622 63.1452 14.5161 61.1914 14.5161 58.7904ZM8.70966 58.7904C8.70966 57.9905 9.35998 57.3388 10.1613 57.3388C10.9626 57.3388 11.6129 57.9905 11.6129 58.7904C11.6129 59.5902 10.9626 60.242 10.1613 60.242C9.35998 60.242 8.70966 59.5902 8.70966 58.7904Z" fill="#BCBCBC"/>
<path d="M56.6129 13.7903C56.6129 10.1889 53.6821 7.25806 50.0807 7.25806C46.4792 7.25806 43.5484 10.1889 43.5484 13.7903C43.5484 17.3918 46.4792 20.3226 50.0807 20.3226C53.6821 20.3226 56.6129 17.3918 56.6129 13.7903ZM46.4516 13.7903C46.4516 11.79 48.0803 10.1613 50.0807 10.1613C52.081 10.1613 53.7097 11.79 53.7097 13.7903C53.7097 15.7906 52.081 17.4193 50.0807 17.4193C48.0803 17.4193 46.4516 15.7906 46.4516 13.7903Z" fill="#BCBCBC"/>
<path d="M79.8387 20.3226C79.8387 17.9216 77.8849 15.9678 75.4839 15.9678C73.0829 15.9678 71.1291 17.9216 71.1291 20.3226C71.1291 22.7236 73.0829 24.6775 75.4839 24.6775C77.8849 24.6775 79.8387 22.7236 79.8387 20.3226ZM74.0323 20.3226C74.0323 19.5228 74.6841 18.871 75.4839 18.871C76.2837 18.871 76.9355 19.5228 76.9355 20.3226C76.9355 21.1225 76.2837 21.7742 75.4839 21.7742C74.6841 21.7742 74.0323 21.1225 74.0323 20.3226Z" fill="#BCBCBC"/>
<path d="M81.2903 43.5484C81.2903 41.1475 79.3364 39.1936 76.9354 39.1936C74.5345 39.1936 72.5806 41.1475 72.5806 43.5484C72.5806 45.9494 74.5345 47.9033 76.9354 47.9033C79.3364 47.9033 81.2903 45.9494 81.2903 43.5484ZM75.4838 43.5484C75.4838 42.7486 76.1356 42.0968 76.9354 42.0968C77.7353 42.0968 78.3871 42.7486 78.3871 43.5484C78.3871 44.3483 77.7353 45.0001 76.9354 45.0001C76.1356 45.0001 75.4838 44.3483 75.4838 43.5484Z" fill="#BCBCBC"/>
<path d="M38.4924 89.3206L40.2169 88.9606L39.5332 87.3363C39.3082 86.8006 39.1935 86.2316 39.1935 85.6452C39.1935 83.9744 40.1414 82.4777 41.6671 81.7403L42.8618 81.1626L42.3929 79.9215C41.2389 76.8716 43.5673 74.0352 46.3514 74.0279L47.7697 74.0889L48.0585 72.9595C48.5506 71.0274 50.2781 69.6774 52.2581 69.6774C52.756 69.6774 53.2713 69.7761 53.7895 69.9735L55.0321 70.4439L55.6098 69.2477C56.3473 67.7221 57.8453 66.7742 59.5161 66.7742C59.9676 66.7742 60.4335 66.8613 60.9431 67.0398L62.4353 67.5624L62.8287 66.031C63.0581 65.1397 63.2366 64.2498 63.3905 63.3614C78.6295 60.7921 90 47.4895 90 31.9355C90 14.326 75.674 -6.26208e-07 58.0645 -1.39594e-06C42.5206 -2.07539e-06 29.2282 11.3531 26.6444 26.5761C11.5447 29.1048 -1.84715e-06 42.2579 -2.53808e-06 58.0645C-3.30782e-06 75.674 14.326 90 31.9355 90C34.126 90 36.331 89.7707 38.4924 89.3206ZM29.655 26.219C32.3434 12.8061 44.2234 2.90322 58.0645 2.90322C74.0729 2.90323 87.0968 15.9271 87.0968 31.9355C87.0968 45.7781 77.1895 57.661 63.7737 60.345C63.8332 59.58 63.871 58.8179 63.871 58.0645C63.871 53.309 62.8185 48.7974 60.9474 44.7387C62.6429 44.1435 63.871 42.5424 63.871 40.6452C63.871 38.2442 61.9171 36.2903 59.5161 36.2903C58.3171 36.2903 57.2284 36.7984 56.4344 37.6069C50.5713 30.5971 41.7673 26.129 31.9355 26.129C31.1676 26.129 30.4098 26.1653 29.655 26.219ZM59.5684 42.0866C59.1518 41.3681 58.7119 40.6669 58.2416 39.9861C58.4826 39.5144 58.966 39.1935 59.5161 39.1935C60.316 39.1935 60.9677 39.8453 60.9677 40.6452C60.9677 41.4276 60.3435 42.0576 59.5684 42.0866ZM2.90322 58.0645C2.90322 42.0561 15.9271 29.0323 31.9355 29.0323C47.9439 29.0323 60.9677 42.0561 60.9677 58.0645C60.9677 59.9777 60.7573 61.9418 60.3421 63.9232C60.0648 63.8884 59.7905 63.871 59.5161 63.871C57.1384 63.871 54.9769 65.0119 53.6284 66.9135C53.1711 66.8206 52.7124 66.7742 52.2581 66.7742C49.3273 66.7742 46.7289 68.5379 45.6039 71.1784C42.001 71.5994 39.1935 74.671 39.1935 78.3871C39.1935 78.8415 39.24 79.2987 39.3329 79.7574C37.4313 81.106 36.2903 83.2674 36.2903 85.6452C36.2903 86.0197 36.3193 86.3898 36.3745 86.7542C34.9011 86.9821 33.4147 87.0968 31.9355 87.0968C15.9271 87.0968 2.90322 74.0729 2.90322 58.0645Z" fill="#BCBCBC"/>
<path d="M56.6129 56.6129L56.6129 53.7097L53.7097 53.7097L53.7097 56.6129L56.6129 56.6129Z" fill="#BCBCBC"/>
<path d="M46.4517 59.516L46.4517 56.6128L43.5484 56.6128L43.5484 59.516L46.4517 59.516Z" fill="#BCBCBC"/>
<path d="M40.6451 36.2904L40.6451 33.3872L37.7419 33.3872L37.7419 36.2904L40.6451 36.2904Z" fill="#BCBCBC"/>
<path d="M37.7419 49.3549L37.7419 46.4517L34.8387 46.4517L34.8387 49.3549L37.7419 49.3549Z" fill="#BCBCBC"/>
<path d="M26.129 56.6129L26.129 53.7097L23.2258 53.7097L23.2258 56.6129L26.129 56.6129Z" fill="#BCBCBC"/>
<path d="M11.6129 47.9032L11.6129 45L8.70969 45L8.70969 47.9032L11.6129 47.9032Z" fill="#BCBCBC"/>
<path d="M14.5161 72.5807L14.5161 69.6775L11.6129 69.6775L11.6129 72.5807L14.5161 72.5807Z" fill="#BCBCBC"/>
<path d="M30.4839 79.8388L30.4839 76.9355L27.5807 76.9355L27.5807 79.8388L30.4839 79.8388Z" fill="#BCBCBC"/>
<path d="M69.6774 52.2582L69.6774 49.355L66.7741 49.355L66.7741 52.2582L69.6774 52.2582Z" fill="#BCBCBC"/>
<path d="M72.5807 36.2904L72.5807 33.3872L69.6775 33.3872L69.6775 36.2904L72.5807 36.2904Z" fill="#BCBCBC"/>
<path d="M84.1936 33.3871L84.1936 30.4839L81.2904 30.4839L81.2904 33.3871L84.1936 33.3871Z" fill="#BCBCBC"/>
<path d="M66.7742 10.1613L66.7742 7.25806L63.8709 7.25806L63.8709 10.1613L66.7742 10.1613Z" fill="#BCBCBC"/>
<path d="M63.871 26.1291L63.871 23.2258L60.9677 23.2258L60.9677 26.1291L63.871 26.1291Z" fill="#BCBCBC"/>
<path d="M52.2581 29.0324L52.2581 26.1292L49.3548 26.1292L49.3548 29.0324L52.2581 29.0324Z" fill="#BCBCBC"/>
<path d="M39.1936 21.7741L39.1936 18.8708L36.2904 18.8708L36.2904 21.7741L39.1936 21.7741Z" fill="#BCBCBC"/>
<path d="M39.1936 68.2257L39.1936 65.3225L36.2904 65.3225L36.2904 68.2257L39.1936 68.2257Z" fill="#BCBCBC"/>
</svg>
