<svg id="Слой_1" data-name="Слой 1" xmlns="http://www.w3.org/2000/svg" viewBox="0 0 200 200"><defs><style>.cls-1{fill:#32254c;}</style></defs><title>Define Icons фіолет</title><path class="cls-1" d="M31.26,97.78q-11.83,0-23.67,0c-4,0-3.92,0-3.7-4A91.56,91.56,0,0,1,18.63,48.43C31.43,28.66,49,15,71.6,7.9A102.7,102.7,0,0,1,95.12,3.68c2-.14,2.66.59,2.65,2.45,0,7.67,0,15.35,0,23,0,2.29-1.33,2.82-3.21,2.94-14.09.95-26.51,6.18-37.5,14.9A67.44,67.44,0,0,0,38.83,69.69c-.81,1.6-1.92,3.51.28,4.67s3.15-.93,3.94-2.48c8.5-16.63,21.81-27.48,39.56-33a49.58,49.58,0,0,1,12.7-2.19c1.83-.07,2.48.56,2.46,2.3,0,5.89-.09,11.78,0,17.67.06,2.67-1.77,2.67-3.52,3Q72.46,63.37,62.88,83.31a30.46,30.46,0,0,0-3.15,10.85c-.24,3-1.67,3.74-4.5,3.68C47.25,97.68,39.25,97.78,31.26,97.78Z"/><path class="cls-1" d="M168.63,102.47c8.1,0,16.2.08,24.29,0,2.58,0,3.57.76,3.38,3.43-1.58,21.66-9.25,40.77-23.44,57.29-11.16,13-25,22.08-41,27.92a98.47,98.47,0,0,1-26.18,5.23c-2.46.2-3.36-.65-3.31-3.17.12-7.25.1-14.51,0-21.76,0-2.24.71-3.14,3-3.32a67.85,67.85,0,0,0,34.73-12.89,65.81,65.81,0,0,0,21.59-26.25c.7-1.52,1.66-3.39-.48-4.37s-3,.81-3.71,2.4c-6.68,14.19-17.39,24.33-31.45,31-6.42,3-13.33,4.44-20.33,5.44-2.4.34-3.44-.5-3.38-3.07.13-5.57.12-11.15,0-16.72,0-2.34,1-3,3.15-3.24,17.14-1.75,33-17.52,34.74-34.58.27-2.59,1.23-3.38,3.72-3.34C152.23,102.54,160.43,102.47,168.63,102.47Z"/><path class="cls-1" d="M122.5,97.79H112.41c-1.66,0-3.52.1-3.57,2.17,0,2.26,1.94,2.47,3.67,2.48,6.41,0,12.83,0,19.24,0,4.34,0,4.49.19,3.61,4.48a36.15,36.15,0,0,1-29,28.56c-3.62.67-3.94.41-4-3.34,0-4.21,0-8.42,0-12.62,0-.74,0-1.48,0-2.21-.15-1.56-.57-3.08-2.51-3-1.74.09-2.11,1.49-2.11,3,0,5-.14,10.09,0,15.14.08,2.64-.73,3.54-3.43,3.2-14.63-1.8-28.31-15.57-30-30.11-.29-2.48.46-3.19,2.8-3.14,4.52.1,9,0,13.57,0a15,15,0,0,0,2.51-.11c1.34-.23,2.49-.86,2.41-2.42s-1.21-2.11-2.63-2.11c-5.16,0-10.31-.12-15.46,0-2.77.07-3.65-.69-3.2-3.65,2.25-14.81,14.92-27.51,29.64-29.71,2.82-.42,3.82.18,3.75,3.1-.15,6.1,0,12.2,0,18.3,0,.84,0,1.68,0,2.52,0,1.36.36,2.61,2,2.72s2.49-1.13,2.55-2.6c.13-3.36.08-6.73.09-10.09,0-3.79.08-7.57,0-11.36-.06-2.23.72-3,3-2.61,11.88,1.81,20.43,8.31,26.31,18.57a33.62,33.62,0,0,1,3.91,11.59c.36,2.22-.22,3.34-2.76,3.22C129.45,97.66,126,97.78,122.5,97.79Z"/><path class="cls-1" d="M102.47,17.77c0-3.89,0-7.78,0-11.67,0-1.94.79-2.56,2.71-2.38q63.35,6,86.2,65.31c3.06,8,4.12,16.47,4.94,25,.28,2.92-.78,3.9-3.69,3.84-6.93-.15-13.88-.15-20.81,0-2.71.06-3.56-.87-3.8-3.57a66.06,66.06,0,0,0-18.75-41.4c-11.67-12-25.94-19.2-42.79-20.63-3.07-.26-4.3-1.2-4.06-4.37.25-3.34.06-6.72.06-10.09Z"/><path class="cls-1" d="M17.69,102.47c3.58,0,7.16.12,10.72,0,2.53-.12,3.48.8,3.75,3.35,2.66,25.56,15.73,44.09,38.43,55.81a62.23,62.23,0,0,0,24.21,6.48c2.39.17,3,1.18,3,3.35-.07,7.26-.09,14.52,0,21.77,0,2.55-1,3.29-3.44,3.12-22.12-1.57-41.69-9.35-58.3-24.15-15.72-14-25.71-31.43-30.35-51.95a107.57,107.57,0,0,1-2-15.29c-.15-1.82.63-2.46,2.34-2.45,3.89,0,7.78,0,11.67,0Z"/><path class="cls-1" d="M152,97.77c-2.84,0-5.68,0-8.52,0-1.91,0-2.78-.67-3.05-2.68C138,76.69,124.7,62.84,106.43,59.84c-3.14-.52-4.19-1.66-4-4.8.25-5.14.16-10.3,0-15.45-.06-2.25.72-3,2.92-2.78a61.24,61.24,0,0,1,30.5,10.88c16.34,11.51,25.42,27.3,27.5,47.17.21,2-.47,3-2.56,2.92C157.84,97.73,154.89,97.77,152,97.77Z"/><path class="cls-1" d="M47.94,102.47c2.62,0,5.26.15,7.88,0s3.46.77,3.83,3.25a39.68,39.68,0,0,0,16.22,27.1A37.31,37.31,0,0,0,95,140.39c1.92.17,2.85.88,2.83,2.9q-.09,8.67,0,17.35c0,2.24-.93,2.9-3.1,2.7A63.88,63.88,0,0,1,37,108c0-.42-.07-.84-.1-1.26-.28-4.28-.28-4.29,4.12-4.29Z"/></svg>