<svg id="Слой_1" data-name="Слой 1" xmlns="http://www.w3.org/2000/svg" viewBox="0 0 200 200"><defs><style>.cls-1{fill:#32254c;}</style></defs><title>puzzle фіолет</title><path class="cls-1" d="M4,146.86h0c0,12.76-.08,25.52,0,38.28.06,7.16,3.22,10.7,10,10.74,25.78.15,51.57.06,77.36.12,3.1,0,4.28-1.41,4.24-4.38-.08-5.05,0-10.1,0-15.15,0-5.37-.1-5.42-5.4-4.67-9.79,1.39-19.2-3.34-23.33-11.71-4-8.16-3.42-16.11,1.89-23.35S81.9,126.38,91,128c3.52.64,4.94-.07,4.8-3.81-.19-5.18-.16-10.37,0-15.55.11-3.56-1.26-5-4.9-5-7,.16-14.09.07-21.13,0-8,0-9.84-2.8-6.72-10.07,2.36-5.53,2.3-10.93-1.56-15.8a14.81,14.81,0,0,0-19-3.47c-6.78,4.27-8.74,12-5.05,19.94,2.77,6,.82,9.29-5.72,9.38-7.57.1-15.15.15-22.72,0C5.26,103.6,4,105,4,108.58,4.13,121.34,4,134.1,4,146.86ZM4,53V72.1c0,6.38.11,12.77,0,19.15-.08,3.49,1.08,5.17,4.81,5,5.44-.18,10.9-.11,16.35,0,3,0,4.13-1,3.35-4.1a21.09,21.09,0,0,1,1-13.68,22.12,22.12,0,0,1,42,13.41c-.82,3.48-.1,4.54,3.41,4.41,5.18-.2,10.38-.2,15.56,0,3.69.13,5.35-1.14,5.26-5-.18-7.17-.13-14.36,0-21.53C95.9,61.9,99,60,106.09,63.16c6.63,3,13.9,1.4,18.1-3.86a14.37,14.37,0,0,0,.19-18.08c-4.28-5.53-10.78-6.9-17.95-3.77s-10.54.93-10.67-6.94c-.12-6.92,0-13.83-.05-20.75,0-5.32-.42-5.74-5.64-5.74Q53.17,4,16.28,4C7,4.05,4.09,7,4.06,16.26,4,28.49,4,40.72,4,53ZM196,147.88c0-12.9-.07-25.81,0-38.7,0-3.63-1.37-5-4.95-4.92-4.79.16-9.58,0-14.37,0-5.66,0-5.67,0-4.84,5.57a22.17,22.17,0,0,1-13.25,24c-8.08,3.31-15.78,2.26-22.52-3.18s-9.71-13-7.76-21.68c.92-4.1-.38-4.86-4-4.71-4.91.2-9.84,0-14.76.07-4.64,0-5.21.64-5.26,5.4-.06,7.05.09,14.1-.09,21.15s-3.7,9.25-10.18,6.28c-7-3.22-14.08-1.78-18.35,3.72a14.56,14.56,0,0,0-.15,17.79c4.29,5.67,11.12,7.18,18.26,4s10.3-1,10.45,6.71c.13,6.91,0,13.83.06,20.74,0,5.48.39,5.83,6,5.84q36.9,0,73.81,0c8.65,0,11.84-3.15,11.88-11.79C196,172.08,196,160,196,147.88ZM148.28,4.57c-12.89,0-25.78,0-38.67,0-4.71,0-5.25.6-5.31,5.33-.06,4.25,0,8.51,0,12.76,0,6.2,0,6.2,6.13,5.41C123,26.44,135.24,37,135.51,49.62c.31,14.6-12.09,25.14-26.75,22.48-3.43-.62-4.62.18-4.52,3.65.17,5.18.19,10.37,0,15.54-.15,3.91,1.6,5.1,5.27,5,7-.17,14.09-.08,21.13,0,7.64.06,9.6,3.16,6.49,10-2.5,5.51-2.42,10.9,1.39,15.79a14.63,14.63,0,0,0,19,3.59c6.69-4.15,8.8-11.61,5.4-19.12-3.23-7.11-1.26-10.24,6.53-10.28,7.31,0,14.62-.12,21.93,0,3.48.07,4.65-1.35,4.64-4.73-.09-25.52,0-51-.1-76.55,0-7.31-3.26-10.4-10.55-10.43C173,4.52,160.64,4.57,148.28,4.57Z"/></svg>